<svg viewBox="0 0 330 200" xmlns="http://www.w3.org/2000/svg"><g><g><g><g><g><line x1="58.59375" y1="177" x2="53.59375" y2="177" style="visibility: inherit;" fill="rgb(0, 0, 0)" stroke="rgb(204, 204, 204)" stroke-width="1px"></line><line x1="58.59375" y1="157.33333333333334" x2="53.59375" y2="157.33333333333334" style="visibility: inherit;" fill="rgb(0, 0, 0)" stroke="rgb(204, 204, 204)" stroke-width="1px"></line><line x1="58.59375" y1="137.66666666666666" x2="53.59375" y2="137.66666666666666" style="visibility: inherit;" fill="rgb(0, 0, 0)" stroke="rgb(204, 204, 204)" stroke-width="1px"></line><line x1="58.59375" y1="118" x2="53.59375" y2="118" style="visibility: inherit;" fill="rgb(0, 0, 0)" stroke="rgb(204, 204, 204)" stroke-width="1px"></line><line x1="58.59375" y1="98.33333333333333" x2="53.59375" y2="98.33333333333333" style="visibility: inherit;" fill="rgb(0, 0, 0)" stroke="rgb(204, 204, 204)" stroke-width="1px"></line><line x1="58.59375" y1="78.66666666666666" x2="53.59375" y2="78.66666666666666" style="visibility: inherit;" fill="rgb(0, 0, 0)" stroke="rgb(204, 204, 204)" stroke-width="1px"></line><line x1="58.59375" y1="59" x2="53.59375" y2="59" style="visibility: inherit;" fill="rgb(0, 0, 0)" stroke="rgb(204, 204, 204)" stroke-width="1px"></line><line x1="58.59375" y1="39.33333333333334" x2="53.59375" y2="39.33333333333334" style="visibility: inherit;" fill="rgb(0, 0, 0)" stroke="rgb(204, 204, 204)" stroke-width="1px"></line><line x1="58.59375" y1="19.666666666666686" x2="53.59375" y2="19.666666666666686" style="visibility: inherit;" fill="rgb(0, 0, 0)" stroke="rgb(204, 204, 204)" stroke-width="1px"></line><line x1="58.59375" y1="0" x2="53.59375" y2="0" style="visibility: inherit;" fill="rgb(0, 0, 0)" stroke="rgb(204, 204, 204)" stroke-width="1px"></line></g><g transform="translate(48.59375, 0)"><text x="0" y="177" dx="0em" dy="0.3em" style="text-anchor: end; visibility: hidden; font-family: &quot;Helvetica Neue&quot;, sans-serif; font-size: 12px; font-weight: 200;" fill="rgb(50, 49, 63)" stroke="none" stroke-width="1px">-0.05</text><text x="0" y="157.33333333333334" dx="0em" dy="0.3em" style="text-anchor: end; visibility: inherit; font-family: &quot;Helvetica Neue&quot;, sans-serif; font-size: 12px; font-weight: 200;" fill="rgb(50, 49, 63)" stroke="none" stroke-width="1px">0</text><text x="0" y="137.66666666666666" dx="0em" dy="0.3em" style="text-anchor: end; visibility: hidden; font-family: &quot;Helvetica Neue&quot;, sans-serif; font-size: 12px; font-weight: 200;" fill="rgb(50, 49, 63)" stroke="none" stroke-width="1px">0.05</text><text x="0" y="118" dx="0em" dy="0.3em" style="text-anchor: end; visibility: inherit; font-family: &quot;Helvetica Neue&quot;, sans-serif; font-size: 12px; font-weight: 200;" fill="rgb(50, 49, 63)" stroke="none" stroke-width="1px">0.1</text><text x="0" y="98.33333333333333" dx="0em" dy="0.3em" style="text-anchor: end; visibility: hidden; font-family: &quot;Helvetica Neue&quot;, sans-serif; font-size: 12px; font-weight: 200;" fill="rgb(50, 49, 63)" stroke="none" stroke-width="1px">0.15</text><text x="0" y="78.66666666666666" dx="0em" dy="0.3em" style="text-anchor: end; visibility: inherit; font-family: &quot;Helvetica Neue&quot;, sans-serif; font-size: 12px; font-weight: 200;" fill="rgb(50, 49, 63)" stroke="none" stroke-width="1px">0.2</text><text x="0" y="59" dx="0em" dy="0.3em" style="text-anchor: end; visibility: hidden; font-family: &quot;Helvetica Neue&quot;, sans-serif; font-size: 12px; font-weight: 200;" fill="rgb(50, 49, 63)" stroke="none" stroke-width="1px">0.25</text><text x="0" y="39.33333333333334" dx="0em" dy="0.3em" style="text-anchor: end; visibility: inherit; font-family: &quot;Helvetica Neue&quot;, sans-serif; font-size: 12px; font-weight: 200;" fill="rgb(50, 49, 63)" stroke="none" stroke-width="1px">0.3</text><text x="0" y="19.666666666666686" dx="0em" dy="0.3em" style="text-anchor: end; visibility: hidden; font-family: &quot;Helvetica Neue&quot;, sans-serif; font-size: 12px; font-weight: 200;" fill="rgb(50, 49, 63)" stroke="none" stroke-width="1px">0.35</text><text x="0" y="0" dx="0em" dy="0.3em" style="text-anchor: end; visibility: hidden; font-family: &quot;Helvetica Neue&quot;, sans-serif; font-size: 12px; font-weight: 200;" fill="rgb(50, 49, 63)" stroke="none" stroke-width="1px">0.4</text></g><line x1="58.59375" y1="0" x2="58.59375" y2="177" fill="rgb(0, 0, 0)" stroke="rgb(204, 204, 204)" stroke-width="1px"></line></g></g><g transform="translate(58, 0)" clip-path="url(#clip_0)"><clipPath id="clip_0"><rect width="271" height="177"></rect></clipPath><g><g><g><line x1="0" y1="0" x2="0" y2="177" fill="rgb(0, 0, 0)" stroke="rgb(60, 60, 60)" stroke-width="1px" opacity="0.25"></line><line x1="33.92578125" y1="0" x2="33.92578125" y2="177" fill="rgb(0, 0, 0)" stroke="rgb(60, 60, 60)" stroke-width="1px" opacity="0.25"></line><line x1="67.8515625" y1="0" x2="67.8515625" y2="177" fill="rgb(0, 0, 0)" stroke="rgb(60, 60, 60)" stroke-width="1px" opacity="0.25"></line><line x1="101.77734375" y1="0" x2="101.77734375" y2="177" fill="rgb(0, 0, 0)" stroke="rgb(60, 60, 60)" stroke-width="1px" opacity="0.25"></line><line x1="135.703125" y1="0" x2="135.703125" y2="177" fill="rgb(0, 0, 0)" stroke="rgb(60, 60, 60)" stroke-width="1px" opacity="0.25"></line><line x1="169.62890625" y1="0" x2="169.62890625" y2="177" fill="rgb(0, 0, 0)" stroke="rgb(60, 60, 60)" stroke-width="1px" opacity="0.25"></line><line x1="203.5546875" y1="0" x2="203.5546875" y2="177" fill="rgb(0, 0, 0)" stroke="rgb(60, 60, 60)" stroke-width="1px" opacity="0.25"></line><line x1="237.48046875" y1="0" x2="237.48046875" y2="177" fill="rgb(0, 0, 0)" stroke="rgb(60, 60, 60)" stroke-width="1px" opacity="0.25"></line><line x1="271.40625" y1="0" x2="271.40625" y2="177" fill="rgb(0, 0, 0)" stroke="rgb(60, 60, 60)" stroke-width="1px" opacity="0.25"></line></g><g><line x1="0" y1="177" x2="271.40625" y2="177" fill="rgb(0, 0, 0)" stroke="rgb(60, 60, 60)" stroke-width="1px" opacity="0.25"></line><line x1="0" y1="157.33333333333334" x2="271.40625" y2="157.33333333333334" fill="rgb(0, 0, 0)" stroke="rgb(60, 60, 60)" stroke-width="1px" opacity="0.25"></line><line x1="0" y1="137.66666666666666" x2="271.40625" y2="137.66666666666666" fill="rgb(0, 0, 0)" stroke="rgb(60, 60, 60)" stroke-width="1px" opacity="0.25"></line><line x1="0" y1="118" x2="271.40625" y2="118" fill="rgb(0, 0, 0)" stroke="rgb(60, 60, 60)" stroke-width="1px" opacity="0.25"></line><line x1="0" y1="98.33333333333333" x2="271.40625" y2="98.33333333333333" fill="rgb(0, 0, 0)" stroke="rgb(60, 60, 60)" stroke-width="1px" opacity="0.25"></line><line x1="0" y1="78.66666666666666" x2="271.40625" y2="78.66666666666666" fill="rgb(0, 0, 0)" stroke="rgb(60, 60, 60)" stroke-width="1px" opacity="0.25"></line><line x1="0" y1="59" x2="271.40625" y2="59" fill="rgb(0, 0, 0)" stroke="rgb(60, 60, 60)" stroke-width="1px" opacity="0.25"></line><line x1="0" y1="39.33333333333334" x2="271.40625" y2="39.33333333333334" fill="rgb(0, 0, 0)" stroke="rgb(60, 60, 60)" stroke-width="1px" opacity="0.25"></line><line x1="0" y1="19.666666666666686" x2="271.40625" y2="19.666666666666686" fill="rgb(0, 0, 0)" stroke="rgb(60, 60, 60)" stroke-width="1px" opacity="0.25"></line><line x1="0" y1="0" x2="271.40625" y2="0" fill="rgb(0, 0, 0)" stroke="rgb(60, 60, 60)" stroke-width="1px" opacity="0.25"></line></g></g></g><g><g><line x1="0" y1="157.33333333333334" x2="271.40625" y2="157.33333333333334" fill="rgb(0, 0, 0)" stroke="rgb(153, 153, 153)" stroke-width="1.5px"></line></g></g><g><g><line x1="33.92578125" y1="0" x2="33.92578125" y2="177" fill="rgb(0, 0, 0)" stroke="rgb(153, 153, 153)" stroke-width="1.5px"></line></g></g><g><g><g><g><g><path style="fill: none;" stroke="rgb(187, 187, 187)" stroke-width="2px" d="M34.73321484375,-2.666332880655915L34.868917968750004,0.13224804401397705L35.14032421875,3.1350187857945855L35.41173046875,13.526427189509093L35.54743359375,9.14958639939627L35.818839843750006,2.2660017410914293L35.954542968750005,6.360582550366729L36.090246093750004,12.679401079813658L36.22594921875,18.416081110636412L36.36165234375,5.47792081038159L36.49735546875,21.343231638272613L36.63305859375,10.733156442642212L36.76876171875001,14.132139126459776L37.31157421875,14.478297074635833L37.447277343749995,21.156296968460083L38.12579296875,16.903676827748626L38.26149609375,15.293555895487486L38.532902343749996,17.34633231163025L38.668605468749995,20.20920976003012L38.94001171875,21.56267209847769L39.34712109375,18.93414580821991L39.48282421875,22.951863845189422L39.754230468749995,13.386487007141113L39.88993359375,18.452760020891844L40.02563671875,22.13833991686505L40.16133984375,23.454044898351043L40.43274609375,24.151776472727477L40.704152343749996,16.889797687530518L40.83985546875,16.366106311480223L41.24696484375,19.608280499776214L41.38266796875,24.692851940790803L41.51837109375,18.251840710639954L41.65407421875,11.775041460990906L41.78977734375,20.145382126172393L42.19688671875,22.91105870405832L42.33258984375,22.270367582639068L42.60399609375,18.71712013085684L42.875402343750004,21.352855602900206L43.01110546875,26.910114924112975L43.14680859375,19.314591328303038L43.28251171875,27.625722924868285L43.68962109375,23.435980916023254L43.825324218750005,18.803454478581756L43.961027343750004,19.703453421592712L44.09673046875,19.914418697357178L44.36813671875,26.76664634545645L44.63954296875,25.04720373948416L44.775246093750006,27.281569480895996L45.45376171875,24.58033009370169L45.58946484375,29.45386592547098L45.72516796875001,28.692904551823943L45.86087109375,30.357815265655518L45.99657421875,24.476494431495667L46.13227734375,23.554656942685455L46.81079296875,29.956257979075104L47.89641796875,32.655234972635924L48.16782421875,35.28305792808533L48.30352734375,35.2902084986369L48.43923046875,38.58826263745627L49.38915234375,45.19424104690552L49.79626171875,36.046844363212585L50.06766796875,41.19445804754892L50.20337109375,39.78418970108032L50.33907421875,37.82169802983603L50.88188671875,42.67024203141531L51.01758984375,49.928188363711044L51.15329296875,41.86556839942932L51.56040234375,41.28583296140036L51.69610546875,43.678648312886565L52.10321484375,41.82403647899628L52.64602734375,45.067195336023985L52.917433593750005,48.616586168607085L53.18883984375,47.037482301394135L53.32454296875,50.08587602774304L53.46024609375,50.973168055216476L53.59594921875,50.95867935816449L53.73165234375001,52.98513933022818L53.867355468750006,49.21462003389995L54.138761718750004,50.27448697884877L54.410167968749995,48.58943744500479L54.81727734375,54.18493473529816L54.95298046875,51.055317560831725L55.08868359375,54.607627232869476L55.360089843749996,56.87303348382315L55.495792968749996,53.628385901451125L55.631496093749995,58.41782633463542L55.90290234375,59.93477884928386L56.03860546875,58.34955596923828L56.31001171875,53.6768339474996L56.44571484375,58.35635487238568L56.717121093749995,55.58117155234021L56.85282421875,60.342244148254395L57.25993359375,48.615437388420105L57.80274609375,56.888014515241L57.93844921875,56.902233600616455L58.07415234375,53.85965410868327L58.20985546875,58.07070716222128L58.48126171875,56.35710223515828L58.61696484375,52.48238388697307L58.88837109375,58.248181978861496L59.15977734375,56.413193186124175L59.29548046875,55.85810963312787L59.43118359375,54.31595428784689L59.56688671875,57.278166055679335L59.838292968750004,60.4613538980484L59.97399609375,60.61802758773169L60.923917968750004,61.41946001847586L61.46673046875,59.01201530297597L62.009542968750004,58.354995091756194L62.14524609375,61.787351012229934L62.28094921875,64.02762476603192L62.82376171875,61.158200442791L62.95946484375,62.13262979189557L63.09516796875,62.962799310684204L63.23087109375,61.403781513373076L63.637980468749994,64.31622648239136L63.77368359375,62.50671013196309L64.04508984374999,61.36144661903383L64.18079296875,59.42050629854204L64.31649609375,61.17930634816487L64.58790234375,59.88181187709172L64.72360546875,65.45780334870021L64.85930859375,60.178027192751586L65.13071484375,62.10007711251578L65.26641796875,58.91562326749167L65.40212109375,61.74371494849524L65.53782421875,63.09087657928467L65.67352734375,62.285077611605345L65.80923046875,60.58820033073425L66.21633984375,65.27113242944081L66.35204296875,61.929395337899535L66.62344921875,62.97418747345607L67.16626171875,64.161369740963L67.30196484375,70.41836514075598L67.57337109375,62.46575846274695L67.84477734375,68.5470842719078L67.98048046875,66.44323988755544L68.65899609375,65.1403180162112L69.06610546875,69.95997840166093L69.20180859375,72.48513791958491L69.33751171875001,62.112848500410735L69.47321484375,68.65634733438492L69.74462109375,68.1767140229543L70.28743359375001,68.70519979794821L70.55883984375001,68.85168685515723L70.83024609375,65.46527041991553L70.96594921875,75.141656935215L71.10165234375,66.03194141387941L71.64446484375,66.27870057026546L71.78016796875,74.32898286978406L72.05157421875,72.04779847462973L72.32298046875,74.0291453798612L72.59438671875,69.7772285739581L73.27290234375,73.05856678883235L73.54430859375,69.71365296840668L73.68001171875001,72.33994030952454L74.08712109375,74.47780265410742L74.35852734375001,72.54639838139218L74.49423046875,74.67344109217328L74.62993359375001,77.91804764668149L74.90133984375001,74.09167184432349L75.03704296875,67.87146085500717L75.17274609375,69.82619825998943L75.71555859374999,71.2949430346489L75.85126171875,71.47914055983226L76.12266796875,72.01420251528424L76.52977734375,73.05316283305487L77.07258984375,65.00863029559454L77.20829296874999,69.04420131444931L77.34399609375,71.31209268172583L77.47969921875,75.27928783496222L77.75110546875,73.37808007001878L78.02251171875,73.9563326438268L78.15821484374999,73.80185101429623L78.29391796875,71.45076100031535L78.42962109375,74.70184995730718L78.83673046874999,75.80779705444972L78.97243359375,75.62038763364156L79.24383984375,75.24058097600938L79.78665234374999,75.8248763680458L80.05805859374999,75.74228727817537L80.32946484375,70.64207249879837L80.46516796875,75.16215914487839L80.60087109375,71.2667686144511L80.73657421875,74.43509264787038L80.87227734375,77.87112935384114L81.14368359375,75.77142878373465L81.27938671875,78.71415231625241L81.68649609375,81.53476520379385L81.95790234374999,77.53720943133037L82.09360546875,75.12954199314119L82.36501171875,80.64253224929175L82.63641796875,74.6877832611402L82.77212109375,75.6262780626615L82.90782421875,76.28425363699596L83.17923046875,76.8910557428996L83.31493359375,72.92658015092215L83.45063671875,74.05175173282625L83.58633984375,79.8878246943156L83.85774609375,75.67898128430049L83.99344921875,78.04436657826106L84.26485546875,75.39066676298778L84.40055859375,72.24915736913681L84.67196484375,79.94417353471121L84.94337109375,79.79564094543457L85.21477734375,79.9881964325905L85.35048046875,79.47504921754201L85.48618359375,79.31380971272787L85.75758984375,81.91451911131541L85.89329296875,79.49441436926524L86.30040234375001,76.93714175621669L86.43610546875,78.6596321463585L86.57180859375,80.14245533943176L86.70751171875,81.3862033089002L86.97891796875,79.94444314638775L87.11462109375,81.05413550138474L87.25032421875001,81.62707789738974L87.38602734375,80.84468239545822L88.06454296875,81.83849447965622L88.60735546875,80.23755206664403L88.74305859375,74.78654905160269L89.01446484375,78.99899119138718L89.42157421875001,80.75220559040707L90.37149609375001,79.2323869864146L90.50719921875,77.9406539996465L90.91430859375001,80.5392416715622L91.05001171875,82.88445297876994L91.18571484375,78.20373638470969L91.32141796875001,86.68000513315201L91.59282421875001,86.44187355041504L91.86423046875001,81.47743755578996L92.13563671875,81.3749323685964L92.40704296875,80.93106949329376L93.08555859375,83.52182084321977L93.62837109374999,85.28406723340353L93.76407421875,82.18224936723709L93.89977734374999,83.87535794576009L94.03548046875,83.39788738886517L94.30688671875,84.28110593557359L94.44258984375,84.08802880843481L94.84969921874999,85.11915866533916L95.25680859375,83.84471013148625L95.66391796875,86.53557533025742L96.07102734374999,87.4326144059499L96.20673046875,87.92804930607478L96.34243359375,85.29149913787842L96.47813671875,79.23188292980194L96.61383984375,86.23006427288057L96.88524609375,85.13780289888382L97.02094921874999,89.68297515312831L97.15665234375,84.79900652170183L97.42805859375,84.46625882387163L97.56376171875,81.49808043241501L97.69946484375,85.77384614944458L97.97087109374999,87.6401978135109L98.24227734375,86.82186190287273L98.37798046875,91.26845006148021L98.92079296874999,87.76291215419769L99.46360546875,85.42666836579642L99.87071484375,84.56450883547467L100.00641796875,81.88194884856543L100.27782421875,88.19448425372441L100.41352734375,84.69261540969212L100.68493359375,85.69504920641583L100.95633984375,81.83102154731752L101.36344921875,93.7763134042422L102.31337109375,85.95156127214432L102.72048046875,85.52714560429257L102.85618359375,89.02750813961029L103.26329296875001,86.98950761556627L103.39899609375,89.60652265946071L103.53469921875,88.66551929712297L103.80610546875,85.09398514032365L103.94180859375,90.95811529954275L104.07751171875,93.2522410551707L104.21321484375001,88.50824191172919L104.48462109375001,90.54917885859808L105.16313671875001,89.35982211430868L105.29883984375,91.16310809055965L106.11305859375001,86.79974788427353L106.38446484375001,88.72481628259024L106.52016796875,88.64835792779922L106.65587109375001,91.28417545557022L106.79157421875,88.93142674366634L106.92727734375,90.74577852090201L107.06298046875,88.99791532754898L107.19868359375,91.2472972671191L107.33438671875001,88.70652957757315L107.47008984375,89.82736392815909L107.60579296875001,92.82362882296245L107.74149609375,88.84834531943004L107.87719921875001,93.5570136109988L108.28430859375001,92.75900993744533L108.42001171875,93.43480918804805L108.55571484375001,85.45872871081036L108.82712109375001,92.17682454983394L108.96282421875,88.46738402048749L109.09852734375,91.22230543692908L109.36993359375,90.89570019642512L109.64133984374999,92.8856922586759L109.91274609374999,92.21816305319469L110.04844921875,87.27664405107498L110.45555859375,93.74466333786647L110.59126171874999,93.86890157063803L110.72696484375,93.27944252888362L110.99837109375,96.29193101326625L111.13407421874999,93.76075212160747L111.26977734375,97.44166070222856L111.54118359374999,92.06457231442134L111.81258984374999,91.05106685558955L111.94829296875,87.48494837681453L112.35540234375,92.7366263071696L112.49110546874999,90.74620638291042L112.62680859375,92.9108657836914L112.76251171874999,93.0860723455747L112.89821484375,91.82182802756628L113.03391796874999,94.50227214892706L113.16962109375,94.80163488785426L113.30532421875,87.73937974373501L113.57673046875,88.49813147385916L113.71243359374999,93.62496747573218L113.84813671875,94.29328793287277L114.25524609375,97.47516288359961L114.39094921875,93.89424506823222L114.52665234375,93.48124686876933L114.79805859375,98.74650502204895L114.93376171874999,93.44734613100688L115.06946484375,96.94713427623114L115.20516796875,92.76898556947708L115.47657421875,91.31426060199739L115.74798046875,94.90875864028932L115.88368359374999,94.19170880317688L116.01938671875,91.06337521473567L116.29079296875,91.24410295486452L116.56219921875,93.40263748168947L116.83360546875,89.87272902329764L116.96930859375,96.11206485827765L117.10501171875,94.66153059403102L117.51212109375,91.89483418067297L118.05493359375,94.19962131977081L118.19063671875,95.23389273881912L118.46204296875,95.98167830705643L118.59774609375,96.54504948854446L118.86915234375,94.39157897233963L119.41196484375,93.9476926525434L119.54766796875,93.57981924215953L119.81907421875,93.74543700615565L120.09048046875,96.16534247001013L120.63329296875,98.88958090543747L121.04040234375,93.11167373259863L121.17610546875001,94.85034082333247L121.44751171875001,97.26991806427638L121.58321484375,95.04967176914215L121.71891796875,100.11409852902095L121.85462109375,95.43132468064627L121.99032421875,95.20214303334555L122.12602734375001,96.60177344083787L122.26173046875,93.88167881965637L122.39743359375001,94.9489542245865L122.53313671875,95.52918199698131L123.07594921875001,98.80792959531149L123.21165234375,95.63231432437897L123.48305859375,96.29158520698547L123.75446484375,98.14014250040054L124.02587109375,98.34177100658417L124.16157421875,98.6429799993833L124.43298046875,97.60327531894049L124.56868359375001,93.15508707364401L124.70438671875,97.12202433745067L125.11149609375,98.57191973924637L125.24719921875001,95.4454792936643L125.38290234375,96.08997428417206L125.51860546875001,97.79538536071777L125.65430859375,97.71611952781679L125.92571484375,97.62315624952316L126.06141796875,98.25704846779506L126.19712109375001,99.24999896685283L126.46852734375,99.63250760237376L126.60423046874999,102.63276392221451L126.73993359375,97.53001127640407L126.87563671874999,93.68333254257838L127.01133984375,97.70486030975978L127.14704296875,93.86498634020488L127.28274609374999,98.82470413049063L127.41844921875,95.46742333968481L127.55415234374999,95.905155479908L127.96126171875,99.18664608399074L128.23266796875,98.76177910963695L128.50407421875,98.82575327157974L128.91118359375,95.81351681550345L129.04688671875,99.9097914894422L129.18258984375,98.83776271343231L129.31829296875,102.12312165896098L129.45399609375,97.73311678568523L129.58969921874998,98.8409394423167L129.72540234375,95.46230071783066L129.86110546875,100.55197719732921L130.13251171875,98.59555178880692L130.26821484375,101.10414191087088L130.40391796875,100.669439971447L130.94673046875,101.65001177787782L131.48954296875,97.5093742609024L131.62524609375,98.4727671146393L131.89665234375,103.91702983776729L132.03235546874998,102.8363090157509L132.16805859375,100.61401718854904L132.30376171875,99.3732759753863L132.43946484375,99.55125484863918L132.57516796875,99.78230619430542L132.98227734374998,102.19633881251018L133.11798046875,100.08015676339468L133.25368359375,99.81767221291861L133.93219921875,101.44695315758388L134.20360546875,102.49066098531088L134.33930859375,99.9150313337644L134.47501171875,98.94386076927185L134.61071484375,99.6967279314995L134.88212109375,102.79269053538641L135.28923046875,99.43183445930481L135.42493359375,98.96654917796454L135.69633984375,100.24811311562857L135.83204296875,101.75824914375941L135.96774609374998,103.32462851206462L136.10344921875,105.88482582569122L136.23915234375,100.38630082209906L136.37485546875,98.37371999025345L136.64626171875,100.31601423025133L137.05337109374997,102.64727020263672L137.18907421875,96.95263200998306L137.46048046875,106.07080513238907L137.73188671875,101.13453183571498L137.86758984374998,101.44892835617067L138.00329296875,101.40987569093704L138.13899609375,105.113853653272L138.41040234374998,99.0743176539739L138.54610546875,102.28168263038L138.68180859375,104.68801959355673L138.81751171875,106.37095326185226L138.95321484374998,102.3768438299497L139.08891796875,103.87344066301982L139.22462109375,103.3907830119133L139.36032421875,98.06124591827393L139.76743359374998,101.41717278957368L139.90313671875,100.1218586564064L140.44594921875,98.68011021614075L140.58165234375,100.71574870745341L140.85305859374998,100.78799877564113L141.12446484375,101.8364775578181L141.39587109375,102.4281462430954L141.53157421875,102.41535141070685L141.66727734375,98.83074108759563L141.80298046875,100.72693173090617L141.93868359375,102.28375746806464L142.07438671875002,100.52084877093634L142.34579296875,103.5537163813909L142.61719921875002,102.84189466635387L142.88860546875,101.07933763662975L143.29571484375,103.7589143117269L143.43141796875,98.32900547981262L143.56712109375,101.85128861665726L143.70282421875,103.85998938481013L143.83852734375,102.870321114858L144.10993359375,103.59507832924525L144.24563671875,98.90054120620093L144.38133984375,102.89098157485327L144.65274609374998,105.84005270401637L144.78844921875,103.97982591390611L145.05985546875002,102.6612958709399L145.46696484375,100.56878103812537L145.73837109375,104.43343583742778L145.87407421875,104.71256597836813L146.00977734375,104.31025846799216L146.41688671875002,103.62808231512706L146.82399609375,104.35639137029648L146.95969921875002,102.57962697744371L147.23110546875,102.58836005131404L147.50251171875001,101.19708760579428L147.77391796875,106.19497889280319L147.90962109375,103.35745666424434L148.45243359375,106.87906577189764L148.72383984375,108.7263892988364L148.85954296875002,101.96802461147308L148.99524609374998,105.78884406884512L149.13094921875,102.47563306490581L149.40235546875002,105.72870894273123L149.53805859375,103.16692912578583L149.67376171875,97.53782415390016L149.80946484375,106.35453039407732L150.35227734375,105.18214160203934L150.62368359375,102.13472082217535L150.75938671875002,107.83936981360118L150.89508984375,102.88156274954478L151.03079296875,104.44472436110179L151.16649609375,106.32722342014313L151.70930859375,106.60105510552725L151.84501171875,103.14122809966406L151.98071484375,104.20550847053528L152.11641796874997,104.61803778012595L152.52352734375,106.94855525096258L152.65923046875,103.9886762102445L152.79493359375,103.6036238471667L152.93063671874998,103.70190902551016L153.06633984375,101.99393077691397L153.33774609375,105.91079060236613L153.47344921874998,103.02939200401306L153.60915234375,102.79276086886725L153.74485546875,105.4550472299258L154.01626171874997,104.50759663184485L154.42337109375,109.02145583430926L154.55907421875,106.1555511156718L154.69477734375,105.22276504834494L154.83048046874998,101.91765411694846L155.10188671875,105.82565778493883L155.23758984375002,105.75900508960089L155.37329296874998,106.52969592809677L155.64469921875,101.04394817352295L155.78040234375,105.12843612829845L156.05180859375,105.60585979620616L156.18751171875,104.1671239733696L156.73032421874998,106.7458014090856L156.86602734375,107.02933911482494L157.13743359375002,103.22367652257284L157.27313671874998,104.10881751775742L157.40883984375,107.1350796421369L157.54454296875,104.0315268834432L157.68024609375001,106.92097280422847L157.81594921874998,105.96257362763087L157.95165234375,104.03217160701752L158.22305859375,106.013125816981L158.35876171875,106.52753903468451L158.49446484375,106.69472757975261L158.90157421875,103.53092833360037L159.03727734375002,101.11833755175273L159.17298046874998,109.34128268559775L159.30868359375,102.5198669632276L159.58008984375002,105.1426259080569L160.39430859375,104.64515133698782L160.53001171875,107.76877844333649L160.66571484375,105.45138988892238L160.93712109375002,105.7087342341741L161.47993359375002,104.5334734916687L161.88704296875,107.15290331840517L162.29415234375,107.80122562249502L162.70126171875,103.55327679713568L162.83696484375,107.95151654879253L163.10837109375,107.92919152975082L163.24407421875,105.05304449796677L163.37977734375002,107.81246725718181L163.51548046874998,109.32341798146567L163.78688671875,107.17333519458771L163.92258984375002,106.28104362885158L164.05829296875,107.3549655477206L164.19399609375,105.89878702163696L164.32969921875,105.19931469360988L164.46540234375001,107.61615478992464L164.60110546875,108.71101264158885L164.73680859375,108.28827911615372L164.87251171875,106.67737865447998L165.14391796875,109.03165125846864L165.27962109375002,103.21466797590256L165.55102734375,106.06781009833018L165.82243359375002,106.80288288990657L165.95813671874998,110.27378155787787L166.22954296875,106.29574918746948L166.50094921875,108.91180007656416L166.63665234375,105.36361370484035L166.77235546875,103.42567427953085L166.90805859375,107.2123351097107L167.31516796875,106.51972615718842L167.45087109375,106.14085727930069L167.58657421875,104.49693524837495L167.72227734375002,103.17635381221771L167.99368359375,110.14759157101314L168.12938671875,105.36643290519714L169.21501171875,105.7934333284696L169.35071484374998,107.50821634133658L169.62212109375,110.79224188129108L169.75782421875,104.05953719218573L170.02923046875,107.03471376498541L170.16493359375,108.53498259186746L170.30063671875,108.41657031575839L170.43633984374998,110.66639770070712L170.84344921875,110.56049599250159L170.97915234374997,106.3382013042768L171.25055859375,104.4696693023046L171.38626171875,107.08147380749385L171.52196484375,107.92337729533514L171.65766796875,106.52426266670227L172.06477734375,107.86718084414801L173.15040234375,107.50819289684296L173.28610546875,106.07015454769136L173.42180859375,110.34192004799843L173.69321484374998,109.40212700764339L173.96462109375,109.30105193456015L174.10032421875002,108.39456472794215L174.23602734374998,109.02081404129665L174.50743359375,108.51719408233961L174.64313671875001,109.75597474972407L174.77883984374998,109.8678753177325L174.91454296875,109.85103044907252L175.05024609375,109.17556528250377L175.45735546875,112.44570582111676L175.59305859375,109.7948457201322L175.72876171875,109.17425239086151L176.40727734375,109.6150088707606L176.54298046875002,107.39341451724371L176.67868359374998,107.14599305391313L176.81438671875,104.36121507485709L177.08579296875,106.6198517282804L177.22149609375,107.95513872305553L177.35719921875,109.96137781937918L177.49290234375,110.99453562498094L178.30712109375,105.45391017198563L178.44282421875002,111.09621439377467L178.71423046875,113.17789493997893L178.84993359375,105.88490788141887L178.98563671875002,108.13307070732117L179.52844921875,108.46544329325359L179.66415234375,106.66536335150401L179.79985546875,110.59911200404167L179.93555859375,111.33996093273163L180.07126171875,111.05203031500182L180.20696484375,109.79434166351955L180.34266796875002,106.91590879360835L180.61407421875,110.14744504292807L180.74977734375,110.93619693319003L180.88548046875002,108.50965374708176L181.02118359375,106.09342906872432L181.15688671875,104.9356227517128L181.29258984375,108.57943042119345L181.42829296875001,108.42996005217235L181.97110546875,105.46783620119095L182.24251171875002,110.810402572155L182.37821484375,108.36498070756595L183.05673046875,109.556441595157L183.19243359375,108.00480588277182L183.46383984375,106.27875779072444L183.73524609375,112.58152856429419L183.87094921875,111.43780652681987L184.00665234375,111.8476426502069L184.27805859375,107.14677844444911L184.68516796875002,110.34247099359831L184.82087109375,111.67997642358145L185.22798046875002,106.88833806912105L185.49938671875,109.92629020412764L185.90649609375,111.16335063179334L186.31360546874998,110.84999739130339L186.44930859375,112.33991254369418L186.72071484375,108.36893989642462L186.85641796874998,109.90395346283914L186.99212109375,107.96234204371771L187.12782421875,111.00247158606848L187.26352734375,107.92360001802444L187.39923046874998,109.78447739283244L187.53493359375,108.76043363412222L187.80633984375,109.15413408478102L187.94204296874997,112.78168592850368L188.07774609375,111.78619463245074L188.48485546875,111.05849220355353L188.62055859375,110.82155922055244L188.89196484375,109.49331436554591L189.02766796875,112.1757864356041L189.97758984375,108.35265476504962L190.11329296875,111.97918091217677L190.24899609375,106.83689498901367L190.38469921875,108.23981348673503L190.52040234375,108.39355368415515L190.79180859375,110.72480379541716L190.92751171875,107.68695716063182L191.06321484375002,109.97055047750474L191.19891796874998,108.58243424693744L191.47032421875,107.44675074021022L191.60602734375001,109.63494548201561L191.74173046874998,110.25089680155119L192.01313671875,110.53047824899356L192.14883984375,108.83792354663214L192.42024609375,111.95028264323871L193.77727734375,115.20781590541205L194.18438671875,111.43972018361093L194.32008984375,108.97052267193794L194.45579296875,112.79403238495192L194.59149609375,107.51005087296168L194.86290234375002,110.79210414489111L194.99860546875,115.50412206848463L195.13430859375,112.37249452869098L195.40571484375002,112.07047377030055L195.81282421875,109.82510963082314L195.94852734375002,109.79060226678848L196.08423046875,105.94709440072378L196.21993359375,107.89181514581045L196.35563671875,106.27703462044398L196.49133984375,106.25304504235586L196.62704296875,111.27581386764844L196.76274609375,109.72951470812163L197.03415234375,110.23620589574179L197.30555859375002,111.8770537674427L197.44126171874998,108.18212244908015L197.71266796875,111.77875686685245L197.98407421875,112.61470838387808L198.25548046875,105.19698196649553L198.39118359375001,108.82352276643118L198.52688671875,110.09453082084656L198.66258984375,111.11946547031403L198.79829296875,108.01116520166397L198.93399609375,110.752869784832L199.47680859375,109.21197165052097L200.15532421875,113.75328435500464L200.29102734375002,114.10758926471075L200.56243359375,113.42101726929347L200.69813671875,109.56779752175014L200.83383984375,113.43445389469466L201.24094921875,108.01489873727164L201.37665234375,111.23936061064403L201.51235546875,109.32870764533679L201.64805859375002,114.98914325237274L201.78376171875,108.90617925922076L202.05516796875,111.10262353221576L202.19087109375002,108.29745763540268L202.59798046875,107.29517036676408L202.86938671875,108.32554999987285L203.14079296875,113.68493486444157L203.27649609374998,111.76352673768999L203.54790234375,107.3956065773964L203.68360546875,107.26324482758841L204.09071484375,110.07280949751537L204.22641796875,110.37391885121664L204.36212109374998,110.97318648298581L204.49782421875,113.2850567897161L204.63352734375,106.6130352417628L204.76923046875,109.36923731366794L204.90493359374997,112.03944205244383L205.17633984375,114.09247342745464L205.31204296875,114.03843386967978L205.44774609375,109.9807283182939L205.58344921875,111.3147287964821L205.71915234374998,107.98262153069179L205.85485546875,111.02000513672829L206.12626171875002,115.14798555771512L206.53337109375,114.38244371612868L206.66907421875,115.19800438483557L206.94048046875,113.34308484196663L207.48329296875,120.0891030728817L207.61899609374998,115.31480778257054L207.89040234375,114.42034467061362L208.02610546875002,114.41080276171368L208.43321484375,114.77091018358867L208.70462109374998,115.80511419971785L208.84032421875,114.75023800134659L208.97602734375,115.78323169549307L209.24743359375,115.66037375728291L209.38313671875,112.90272984902064L209.51883984375,112.3956635495027L209.65454296875,118.24038459857306L209.92594921875002,117.3397966126601L210.33305859375,116.04021851221721L210.46876171875002,114.32190710306168L210.74016796875,112.96829823652904L210.87587109375,113.32969217499098L211.01157421875,114.50170292456946L211.28298046875,115.13038753469786L211.41868359375,114.57219758629799L211.82579296875002,114.88646809260051L212.09719921875,116.96695296963057L212.23290234375,112.98245284954707L212.50430859374998,117.78572846452397L212.64001171875,114.33970440427463L212.77571484375,114.62947834531468L212.91141796875002,114.47816172242165L213.04712109375,118.74853227535884L213.18282421875,113.1207284728686L213.31852734375,116.14400142431259L213.72563671875,116.17052300771078L213.86133984375,116.7314530313015L213.99704296875,114.18645361065865L214.13274609375,116.47621282935143L214.26844921875002,114.26468495527905L214.40415234374998,114.12253805994987L214.53985546875,113.2201096812884L214.81126171875002,114.94520827134451L214.94696484375,117.3498630921046L215.08266796875,115.30337273081145L215.21837109375,114.2360650897026L215.35407421875001,115.11488486329716L215.48977734375,114.59120227893195L215.89688671875,115.76648353536925L216.30399609375,116.6258180042108L216.57540234375,118.80748345454535L216.84680859374998,116.15097616116208L216.98251171875,117.28250706195831L217.11821484375,115.61962429682416L217.25391796875002,115.80097331603369L217.38962109375,118.2823414504528L217.93243359375,114.8140216767788L218.47524609375,117.13426166772842L218.74665234375,119.53738380471866L218.88235546875,116.20185364286107L219.01805859375,113.67478925983112L219.28946484375,118.73609790205956L219.42516796875,113.77468624711037L219.56087109375,116.03065315882367L219.96798046874997,115.15967556834221L220.37508984375,117.2253523170948L220.51079296875,118.3752549091975L220.64649609375,116.87764703234038L220.91790234375,117.88317257165909L221.05360546875,117.65638812383017L221.18930859375,115.05116859078407L221.46071484375,115.7428807914257L221.59641796875,115.07541605830193L221.86782421874997,116.09962392846745L222.00352734375,115.96389496326447L222.13923046875,115.4744940896829L222.27493359375,115.06853509942691L222.41063671875,116.31485610206923L222.54633984375,113.28148736556372L222.81774609375,119.3127328058084L222.95344921875,115.52013172705969L223.36055859375,116.8087026377519L224.03907421875,113.82030923167865L224.58188671874998,116.5582275291284L225.66751171874998,117.78725821773213L225.80321484375,118.6394245326519L225.93891796875,116.90010685722035L226.07462109375,116.42896631360054L226.21032421875,115.4042573173841L226.61743359375,115.37305562694868L226.75313671875,115.68141519029936L227.02454296874998,114.80480212966602L227.16024609375,112.79386827349664L227.43165234375002,117.70228072007498L227.56735546874998,117.55076481898627L227.70305859375,116.575743496418L227.83876171875,119.57495360573134L228.11016796875,114.99843020240466L228.24587109375,115.69729297359785L228.38157421875,122.55262115597725L228.51727734375,115.46614784995717L228.65298046875,116.42554341753325L228.92438671875,117.93222138285637L229.06008984375,117.09770584106445L229.19579296875,115.38744761546454L229.46719921874998,115.63642520705861L229.73860546875,114.43187643090886L229.87430859375002,117.02933290600777L230.55282421875,118.07769153515498L230.82423046875,115.05260163545609L231.36704296874998,119.78187470634779L231.50274609375,119.49526870250702L231.63844921875,115.96370447675388L232.18126171875,117.30358073115349L232.85977734375,120.09550928076109L232.99548046875,115.54012988011044L233.40258984375,121.60493025183678L233.53829296875,116.53265544772148L233.94540234375,118.3175023297469L234.08110546875,116.33348275224368L234.48821484375,116.1333400408427L234.62391796875,115.74702460567157L234.89532421875,112.68571296334267L235.03102734375003,119.68917517860731L235.16673046875,118.08124923706055L235.30243359375,119.66348880529404L235.57383984375002,116.37117563684782L235.70954296875,118.0024933218956L235.84524609375,117.41208477814993L235.98094921875,114.45590117573738L236.11665234375002,116.79973218838374L236.25235546875,116.88710395495099L236.38805859375,115.24604508280754L236.52376171875,115.99817960460982L236.65946484375,119.26243264476459L237.20227734374998,116.44640608628592L237.60938671875,117.99533689022064L237.74508984374998,113.12290294965109L237.88079296875,115.76391636331877L238.01649609375,118.27122289935748L238.28790234374998,116.46202304959297L238.42360546875,116.74097149570784L238.55930859375,115.02112447222075L238.69501171875,118.93318696816763L238.83071484374997,114.92419907450676L238.96641796875,115.07292801141739L239.10212109375,115.43152619401614L239.23782421875,117.5150148967902L239.37352734375,116.52847646673521L239.78063671875,116.4532225728035L240.05204296875002,117.6405689517657L240.18774609374998,115.65531560778618L240.73055859374998,115.46839852134387L240.86626171875,118.47687213619551L241.00196484375,119.06940533717474L241.27337109375,118.64264815052351L241.81618359375,117.88066108028094L242.22329296875,116.37490917245547L242.49469921875001,116.03147957722346L243.03751171875,117.10740013917288L243.17321484375,115.27128894130391L243.30891796875,117.75967284043631L243.44462109375,119.07604305942854L243.85173046875002,117.28297888239226L244.12313671875,118.19689799348514L244.25883984375,116.70760998129845L244.39454296875002,115.83664411306381L244.53024609374998,116.3109818994999L244.66594921875,116.25843399763107L244.93735546875,116.02570050954819L245.07305859375,117.89104699095091L245.48016796875,120.6210058828195L245.61587109375,119.46159361799559L245.75157421875002,119.62069967389107L245.88727734375,118.45907190442085L246.02298046875,117.01801214615504L246.15868359375,118.98857751488686L246.83719921875002,116.130107631286L246.97290234375,118.10006637374562L247.10860546875,116.16841886440913L247.78712109375,119.20700986186664L248.05852734375,120.50994345545769L248.19423046875002,116.15302169322968L248.32993359374998,116.6719069480896L248.46563671875,118.66617469986281L248.73704296875002,116.2262886663278L248.87274609375,115.5304092069467L249.00844921875,117.27090789874396L249.14415234375,118.86699730157852L249.27985546875001,117.9234384894371L249.41555859375,116.59259129563968L249.55126171875,118.0805341800054L249.82266796875,118.15943369269371L250.09407421875002,116.78405954440436L250.22977734375,118.56701914469402L250.36548046875,118.10173386335373L250.63688671875002,117.36822599172592L250.77258984374998,118.51953525344533L251.04399609375,117.58345230420431L251.31540234375,118.05357301235199L251.45110546875,117.41901555657387L251.58680859375,117.62136791149776L251.72251171875,115.70516153176627L251.85821484375,118.32465876142184L252.40102734375,115.90937186280887L252.53673046875002,119.13445794582367L252.67243359375,115.12374102075896L252.80813671875,114.47056863705319L252.94383984375,117.88954361279806L253.07954296875002,116.98851018150648L253.21524609375,117.88472283879916L253.48665234375,120.23902767896652L253.62235546875,118.51336055994034L253.75805859375,117.73440553744635L253.89376171874997,115.96447521448135L254.43657421875,116.33535831173262L254.70798046874998,117.07252645492554L254.84368359375,117.373565475146L254.97938671875,118.84913552800815L255.25079296874998,117.98642212152481L255.52219921875,118.50167054931323L255.65790234375,117.74271954099338L255.79360546874997,119.26463642716408L255.92930859375,118.23995673656464L256.06501171875,117.06226069728535L256.20071484375,115.66100675861043L256.33641796874997,117.6162277062734L256.60782421875,118.24044907093048L256.74352734375,119.21702359120053L256.87923046875,118.97894768913588L257.01493359375,117.43179573615393L257.15063671875,118.34667021036148L257.28633984375,118.75256765882175L257.42204296874996,117.62962916493416L257.55774609375,118.16438048084578L257.69344921875,118.49992393453917L258.10055859375,117.84399682283401L258.23626171875,119.95032339294752L258.50766796875,121.17400580644608L258.64337109375,119.69709941744804L259.05048046875,118.62769935528439L259.18618359375,119.36215086778006L259.32188671874997,117.25598840912184L259.45758984375,120.376989732186L259.59329296875,116.8354528049628L259.86469921875,116.0238747696082L260.00040234375,115.73514996965727L260.27180859375,117.33453918496768L260.40751171875,122.45722551147145L260.67891796875,120.38691261410713L260.81462109375,121.39704206585884L260.95032421875,117.06147530674934L261.08602734375,121.31965472300848L261.35743359375,118.94008844097456L261.49313671875,116.95289213458697L261.76454296875,118.08626342813174L261.90024609375,118.75484470526378L262.03594921875,116.87444685896239L262.30735546875,115.24062647422156L262.44305859375,116.72329141696295L262.57876171875,116.98663462201755L262.71446484375,117.72480501731238L262.79588671875,112.80605061848959" fill="none"></path></g><g><path style="fill: none;" stroke="rgb(255, 112, 67)" stroke-width="2px" d="M34.73321484375,-3.8535620371500556L34.868917968750004,6.834559877713531L35.14032421875,5.797457536061614L35.41173046875,15.663170059522002L35.54743359375,7.730069200197875L35.818839843750006,9.01119355360666L35.954542968750005,8.49577808380127L36.090246093750004,12.780587514241546L36.22594921875,20.69485072294873L36.36165234375,13.54969584941864L36.49735546875,16.54580835501352L36.63305859375,14.040471156438201L36.76876171875001,16.17244307200113L37.31157421875,19.006296237309783L37.447277343749995,17.447342912356078L38.12579296875,15.418808102607727L38.26149609375,11.984412511189788L38.532902343749996,11.184275388717651L38.668605468749995,20.415263414382935L38.94001171875,15.093316475550353L39.34712109375,12.746346831321716L39.48282421875,18.787359833717346L39.754230468749995,11.340321938196809L39.88993359375,21.835331559181213L40.02563671875,24.924073259035765L40.16133984375,20.871469815572112L40.43274609375,26.846627235412598L40.704152343749996,15.56070590019226L40.83985546875,14.200468103090941L41.24696484375,17.947144349416106L41.38266796875,19.384033918380737L41.51837109375,15.32450262705487L41.65407421875,13.692238370577485L41.78977734375,15.264543334643065L42.19688671875,16.687870264053345L42.33258984375,22.60150933265686L42.60399609375,21.792990803718567L42.875402343750004,22.997029662132263L43.01110546875,25.388825178146362L43.14680859375,19.509180625279754L43.28251171875,30.576880613962828L43.68962109375,18.142952760060638L43.825324218750005,22.10598651568094L43.961027343750004,18.257420500119537L44.09673046875,16.10221509138745L44.36813671875,28.322985609372466L44.63954296875,20.002429326375335L44.775246093750006,25.601841847101838L45.45376171875,21.065133055051177L45.58946484375,24.51041861375174L45.72516796875001,25.594738165537535L45.86087109375,25.16369942824045L45.99657421875,20.5067321062088L46.13227734375,25.556230584780394L46.81079296875,30.42859419186911L47.89641796875,27.761583765347808L48.16782421875,36.39124397436777L48.30352734375,28.9676271279653L48.43923046875,38.0411619345347L49.38915234375,39.221404631932586L49.79626171875,32.37781627972922L50.06766796875,39.425875782966614L50.20337109375,39.33924837907156L50.33907421875,35.948107878367125L50.88188671875,42.75445465246838L51.01758984375,47.894355098406464L51.15329296875,40.81126952171326L51.56040234375,34.33153971036276L51.69610546875,36.16033915678662L52.10321484375,31.117534081141173L52.64602734375,39.43534735838571L52.917433593750005,49.642470320065826L53.18883984375,40.078980763753265L53.32454296875,44.243133107821166L53.46024609375,45.23397946357727L53.59594921875,43.72189168135327L53.73165234375001,45.808451612790435L53.867355468750006,46.24092046419781L54.138761718750004,38.481613636016846L54.410167968749995,43.05140260855359L54.81727734375,41.634323636690795L54.95298046875,38.737346172332764L55.08868359375,44.37657916545868L55.360089843749996,48.80638106664023L55.495792968749996,42.08545430501303L55.631496093749995,49.58128019173941L55.90290234375,50.726051370302855L56.03860546875,49.4673985640208L56.31001171875,47.34894239902496L56.44571484375,48.44901665051779L56.717121093749995,42.78231843312582L56.85282421875,51.869462768236815L57.25993359375,42.366143504778535L57.80274609375,51.352441350619L57.93844921875,48.230584303537995L58.07415234375,50.162117520968124L58.20985546875,48.46498235066733L58.48126171875,49.51182587941487L58.61696484375,51.98047244548799L58.88837109375,53.38315649827321L59.15977734375,56.857220172882094L59.29548046875,55.46028002103171L59.43118359375,48.845099647839874L59.56688671875,50.79760396480562L59.838292968750004,57.013794223467514L59.97399609375,55.25480075677237L60.923917968750004,51.04935093720755L61.46673046875,55.522560318311065L62.009542968750004,50.21411740779877L62.14524609375,54.03483136494954L62.28094921875,51.777361075083434L62.82376171875,51.58879701296489L62.95946484375,49.56069592634839L63.09516796875,56.89129674434663L63.23087109375,50.31215055783589L63.637980468749994,53.074404239654555L63.77368359375,52.854025999705L64.04508984374999,46.33922322591147L64.18079296875,49.69462259610495L64.31649609375,48.901893933614105L64.58790234375,50.20179732640584L64.72360546875,54.474720398585006L64.85930859375,50.28231743971509L65.13071484375,45.2776799996694L65.26641796875,53.02010679244995L65.40212109375,47.85108828544617L65.53782421875,53.9735709031423L65.67352734375,53.45756932099661L65.80923046875,55.27366185188295L66.21633984375,52.75544190406799L66.35204296875,53.54603711764018L66.62344921875,52.3872578541438L67.16626171875,51.587015231450394L67.30196484375,58.433416922887176L67.57337109375,50.36095027128856L67.84477734375,55.04309697945912L67.98048046875,49.83966195583345L68.65899609375,54.07449944814046L69.06610546875,56.585322658220946L69.20180859375,54.35275042057039L69.33751171875001,50.232298612594604L69.47321484375,54.45615235964458L69.74462109375,50.8488536278407L70.28743359375001,56.2392233212789L70.55883984375001,54.7243808110555L70.83024609375,51.38838175932568L70.96594921875,57.54210416475934L71.10165234375,52.04778158664705L71.64446484375,53.44694896539053L71.78016796875,57.380020658175155L72.05157421875,55.25179986159009L72.32298046875,61.852714260419205L72.59438671875,55.34325683116913L73.27290234375,58.67335959275563L73.54430859375,55.20665748914084L73.68001171875001,51.42905795574188L74.08712109375,57.44744702180226L74.35852734375001,57.1750923395157L74.49423046875,58.66658413410187L74.62993359375001,59.41690170764923L74.90133984375001,53.91737445195517L75.03704296875,53.338893294334426L75.17274609375,54.90966264406842L75.71555859374999,51.463474472363785L75.85126171875,55.686589717865004L76.12266796875,58.62214509646098L76.52977734375,56.88489639759064L77.07258984375,58.308492938677475L77.20829296874999,52.29672694206238L77.34399609375,59.26920139789581L77.47969921875,60.16380810737611L77.75110546875,60.69570505619049L78.02251171875,58.11175847053528L78.15821484374999,57.13344319661459L78.29391796875,58.54838871955873L78.42962109375,59.41266997655234L78.83673046874999,59.764554242293045L78.97243359375,57.7325555086136L79.24383984375,59.27745385964711L79.78665234374999,58.81024026870729L80.05805859374999,60.418016751607254L80.32946484375,54.43349325656891L80.46516796875,60.39155964056653L80.60087109375,53.55141762892406L80.73657421875,53.528547525405884L80.87227734375,61.02482471863431L81.14368359375,59.17633775870006L81.27938671875,60.77172382672629L81.68649609375,61.972234288851425L81.95790234374999,63.929913977781936L82.09360546875,61.90025969346365L82.36501171875,58.48010663191479L82.63641796875,55.136452953020736L82.77212109375,60.140785614649474L82.90782421875,60.29914730787277L83.17923046875,62.27530125776927L83.31493359375,59.04152605930966L83.45063671875,58.50055023034413L83.58633984375,57.34140757719676L83.85774609375,57.23862691720328L83.99344921875,58.8408353328705L84.26485546875,59.32926032940547L84.40055859375,64.33464213212332L84.67196484375,62.998511135578156L84.94337109375,62.23897401491803L85.21477734375,60.478339433670044L85.35048046875,60.45344724257788L85.48618359375,63.09004429976147L85.75758984375,65.56685541073482L85.89329296875,65.86874429384868L86.30040234375001,62.471385141213744L86.43610546875,62.105826874574035L86.57180859375,62.10609648625058L86.70751171875,60.583007375399276L86.97891796875,57.990702827771514L87.11462109375,59.11912147204083L87.25032421875001,63.14682100216548L87.38602734375,55.48504912853241L88.06454296875,63.114397267500564L88.60735546875,63.3969268600146L88.74305859375,58.70474004745485L89.01446484375,60.543843348821014L89.42157421875001,60.49937500556311L90.37149609375001,64.07318327824275L90.50719921875,58.68464811642964L90.91430859375001,61.92159418265025L91.05001171875,62.22816610336304L91.18571484375,62.6978179216385L91.32141796875001,67.0319955945015L91.59282421875001,63.689461390177414L91.86423046875001,61.57998446623485L92.13563671875,65.53005341688794L92.40704296875,61.73592551549275L93.08555859375,61.466507256031036L93.62837109374999,65.70793851216635L93.76407421875,61.24665651718776L93.89977734374999,63.54099913438162L94.03548046875,64.70308407147726L94.30688671875,64.19179483254752L94.44258984375,66.76709626118344L94.84969921874999,59.329963664213835L95.25680859375,65.61621779203416L95.66391796875,62.289795815944686L96.07102734374999,63.441987176736205L96.20673046875,68.10632779200873L96.34243359375,65.25107566515605L96.47813671875,59.41027277708055L96.61383984375,64.93819131453833L96.88524609375,63.2043772339821L97.02094921874999,66.02573448419571L97.15665234375,62.23095013697943L97.42805859375,60.64534628391266L97.56376171875,63.208356936772674L97.69946484375,68.31575745344163L97.97087109374999,64.70477793614072L98.24227734375,63.20295298099519L98.37798046875,66.44449416796367L98.92079296874999,63.17646656433742L99.46360546875,61.11473435163499L99.87071484375,64.6649398803711L100.00641796875,63.24277931451799L100.27782421875,64.50150245428087L100.41352734375,68.46992258230847L100.68493359375,64.95634907484055L100.95633984375,61.9752117395401L101.36344921875,68.46421970923743L102.31337109375,62.34511309862137L102.72048046875,64.52205155293149L102.85618359375,68.44591542085013L103.26329296875001,65.16591354211172L103.39899609375,64.12444466352464L103.53469921875,66.6495572924614L103.80610546875,59.97231348355612L103.94180859375,66.09149628877641L104.07751171875,66.7243686715762L104.21321484375001,64.01813560724258L104.48462109375001,68.15225555499396L105.16313671875001,66.32097685337067L105.29883984375,72.97204488515854L106.11305859375001,64.91139425834021L106.38446484375001,66.76297003030777L106.52016796875,69.30134052038194L106.65587109375001,69.7814485828082L106.79157421875,68.60888981819154L106.92727734375,69.75750003258389L107.06298046875,72.07416180769603L107.19868359375,69.0200007359187L107.33438671875001,67.27815691630046L107.47008984375,67.30253918965657L107.60579296875001,72.94893447558087L107.74149609375,69.8522978425026L107.87719921875001,66.24027504523596L108.28430859375001,67.83138249317807L108.42001171875,67.8242495059967L108.55571484375001,68.63884601990382L108.82712109375001,68.45978283882141L108.96282421875,61.732127507527665L109.09852734375,67.74224066734314L109.36993359375,65.81326876084012L109.64133984374999,67.26374441385269L109.91274609374999,68.05102809270224L110.04844921875,67.56386909882228L110.45555859375,65.61885529756547L110.59126171874999,67.30666542053223L110.72696484375,67.43046993017197L110.99837109375,68.12884622812271L111.13407421874999,70.66774421930313L111.26977734375,69.4036698738734L111.54118359374999,70.11225038766861L111.81258984374999,69.25751690069835L111.94829296875,63.537206987539946L112.35540234375,67.26104829708737L112.49110546874999,66.28639036417007L112.62680859375,71.4641185005506L112.76251171874999,68.76088047027588L112.89821484375,69.14562805493672L113.03391796874999,64.83393365144731L113.16962109375,68.12471413612366L113.30532421875,63.38582003116608L113.57673046875,65.32204800844193L113.71243359374999,67.80620310703914L113.84813671875,68.40650522708893L114.25524609375,70.56117727359135L114.39094921875,70.16866370042165L114.52665234375,70.90162648757298L114.79805859375,70.91547046105069L114.93376171874999,72.36464494466783L115.06946484375,71.09884742895763L115.20516796875,72.73059590657553L115.47657421875,70.40321999788284L115.74798046875,68.51519976059596L115.88368359374999,66.53805528084439L116.01938671875,70.77222460508348L116.29079296875,71.78424133857091L116.56219921875,68.70099151134492L116.83360546875,69.2632490793864L116.96930859375,67.79914631446204L117.10501171875,68.73680297533672L117.51212109375,72.27683359384537L118.05493359375,64.58233906825384L118.19063671875,72.98418913284938L118.46204296875,69.02059270938238L118.59774609375,67.34837317466737L118.86915234375,69.54355730613074L119.41196484375,69.17183313767116L119.54766796875,67.9934015274048L119.81907421875,68.8562819759051L120.09048046875,67.00956507523854L120.63329296875,69.34552166859311L121.04040234375,64.79484581947328L121.17610546875001,65.67388538519542L121.44751171875001,71.59610513846081L121.58321484375,69.6696476538976L121.71891796875,71.0539101958275L121.85462109375,70.30887349446614L121.99032421875,70.38872543970744L122.12602734375001,70.70594116051993L122.26173046875,72.66570154825847L122.39743359375001,67.46907715002696L122.53313671875,71.53871887922287L123.07594921875001,70.62061492602031L123.21165234375,67.60385954380035L123.48305859375,69.73935985565186L123.75446484375,72.46368620793027L124.02587109375,71.35757499933243L124.16157421875,72.28835070133209L124.43298046875,71.00220922629039L124.56868359375001,70.48374011119206L124.70438671875,71.6132078965505L125.11149609375,68.38449670871098L125.24719921875001,67.18373421827953L125.38290234375,69.30601769685745L125.51860546875001,71.11256831884386L125.65430859375,71.31068015098572L125.92571484375,73.5662455757459L126.06141796875,70.79869343837103L126.19712109375001,69.02188801765442L126.46852734375,75.2189124027888L126.60423046874999,71.37440228462219L126.73993359375,70.76348567008972L126.87563671874999,70.61027004321417L127.01133984375,71.72576491038006L127.14704296875,71.37371653318405L127.28274609374999,72.34805796543759L127.41844921875,71.42425113916397L127.55415234374999,69.95663170019787L127.96126171875,70.73196454842886L128.23266796875,71.42398152748746L128.50407421875,71.38474130630493L128.91118359375,68.46114261945088L129.04688671875,74.08705327908199L129.18258984375,70.92808945973715L129.31829296875,76.48599936564764L129.45399609375,73.70382372538249L129.58969921874998,71.24512348572414L129.72540234375,74.09413351615271L129.86110546875,73.49425339698792L130.13251171875,71.76155292987825L130.26821484375,69.3471041719119L130.40391796875,75.28966788450879L130.94673046875,73.82487350702287L131.48954296875,70.79672996203107L131.62524609375,69.91783692439397L131.89665234375,65.3896091779073L132.03235546874998,59.22645036379497L132.16805859375,66.76558995246889L132.30376171875,70.80630117654802L132.43946484375,73.01454389095306L132.57516796875,72.70343546072644L132.98227734374998,73.15979425112407L133.11798046875,70.8716761469841L133.25368359375,71.13129460811616L133.93219921875,71.26027448972066L134.20360546875,70.23485922813417L134.33930859375,72.70786060889563L134.47501171875,72.48057796557745L134.61071484375,75.35242879390717L134.88212109375,74.96265236536662L135.28923046875,67.37531089782715L135.42493359375,70.8943938612938L135.69633984375,69.05428244670233L135.83204296875,74.04127204418182L135.96774609374998,75.8505949775378L136.10344921875,74.01198401053746L136.23915234375,73.70769792795181L136.37485546875,69.13392339150111L136.64626171875,70.1685406168302L137.05337109374997,70.90070043007535L137.18907421875,69.33885171016057L137.46048046875,73.84940230846406L137.73188671875,71.09969143072765L137.86758984374998,70.32584144671759L138.00329296875,71.74498939514162L138.13899609375,75.60558829704922L138.41040234374998,71.55810747543971L138.54610546875,71.4582925438881L138.68180859375,76.77190496524176L138.81751171875,79.21461606025697L138.95321484374998,74.6507937113444L139.08891796875,73.15822933117549L139.22462109375,77.16845685243607L139.36032421875,75.18207524220149L139.76743359374998,73.58739837010701L139.90313671875,76.45490610599518L140.44594921875,74.85345963637035L140.58165234375,68.81102238098781L140.85305859374998,74.20884156227113L141.12446484375,74.01329104105632L141.39587109375,71.53769318262736L141.53157421875,71.97689060370128L141.66727734375,71.75751461585364L141.80298046875,74.0486570596695L141.93868359375,71.8725098570188L142.07438671875002,71.6099725564321L142.34579296875,73.28916682799658L142.61719921875002,77.39492479960126L142.88860546875,72.4450947244962L143.29571484375,74.95995038747789L143.43141796875,69.46126713355383L143.56712109375,71.09344347318014L143.70282421875,76.0360878109932L143.83852734375,74.13224254051845L144.10993359375,77.80253076553345L144.24563671875,70.28531177838644L144.38133984375,71.93514768282573L144.65274609374998,75.77301128705344L144.78844921875,74.54761449495952L145.05985546875002,74.87644696235658L145.46696484375,72.20196360349657L145.73837109375,73.77669507265091L145.87407421875,74.29104967912039L146.00977734375,75.0953599214554L146.41688671875002,75.41806751489639L146.82399609375,74.72188327709834L146.95969921875002,76.58548021316528L147.23110546875,76.21843322118124L147.50251171875001,73.80833927790326L147.77391796875,73.94667351245882L147.90962109375,75.47959172725679L148.45243359375,77.2280586163203L148.72383984375,79.19350429375967L148.85954296875002,74.79630782206854L148.99524609374998,75.94548070430757L149.13094921875,73.5905926823616L149.40235546875002,77.48826318979265L149.53805859375,74.61682264010112L149.67376171875,72.71389756600063L149.80946484375,75.48374140262604L150.35227734375,74.72357128063838L150.62368359375,71.6864133278529L150.75938671875002,79.34556527932486L150.89508984375,73.30265327294667L151.03079296875,76.50547001759212L151.16649609375,75.18384530146918L151.70930859375,75.240211725235L151.84501171875,70.23431414365768L151.98071484375,72.79266520341237L152.11641796874997,75.3023748000463L152.52352734375,76.69315491120021L152.65923046875,74.7036669055621L152.79493359375,73.63332027196884L152.93063671874998,73.47619527578355L153.06633984375,72.97171080112457L153.33774609375,74.1019581158956L153.47344921874998,71.69996424516043L153.60915234375,73.30084804693858L153.74485546875,76.14516331752142L154.01626171874997,76.95844107866289L154.42337109375,79.53568840026855L154.55907421875,75.10165476799011L154.69477734375,76.16595858335495L154.83048046874998,75.90336267153424L155.10188671875,75.43958956003189L155.23758984375002,70.83695485194524L155.37329296874998,74.33839583396913L155.64469921875,74.48762589693071L155.78040234375,73.1200441122055L156.05180859375,74.15020102262497L156.18751171875,74.21863549947739L156.73032421874998,74.98928531010945L156.86602734375,76.49987264474234L157.13743359375002,70.7574194073677L157.27313671874998,78.91296748320264L157.40883984375,76.1837588151296L157.54454296875,76.89014140764873L157.68024609375001,80.05828960736594L157.81594921874998,77.52820088466008L157.95165234375,79.1275549332301L158.22305859375,72.29907655715944L158.35876171875,78.31592414776485L158.49446484375,77.64334851503374L158.90157421875,73.75637455781302L159.03727734375002,76.52772470315298L159.17298046874998,75.38921906550726L159.30868359375,75.93965474764508L159.58008984375002,76.6675652464231L160.39430859375,74.99032859007518L160.53001171875,78.01858349641165L160.66571484375,77.10828069845837L160.93712109375002,74.12274752060573L161.47993359375002,75.44835193951926L161.88704296875,78.5560192068418L162.29415234375,75.085724234581L162.70126171875,75.92166109879813L162.83696484375,75.18092646201451L163.10837109375,76.57540494203568L163.24407421875,74.42733838160832L163.37977734375002,78.18420126040776L163.51548046874998,77.76833697160086L163.78688671875,79.29066999753317L163.92258984375002,76.45651791493098L164.05829296875,74.12247204780579L164.19399609375,76.20164110263188L164.32969921875,75.70145283142726L164.46540234375001,73.74486917257309L164.60110546875,78.23641800880434L164.73680859375,75.03393534819287L164.87251171875,77.13974907000859L165.14391796875,76.57116734981537L165.27962109375002,71.70163466533025L165.55102734375,76.66909499963126L165.82243359375002,74.21668374538422L165.95813671874998,80.34275923172635L166.22954296875,78.69887822866441L166.50094921875,78.06313975652058L166.63665234375,75.849768559138L166.77235546875,74.34888138373694L166.90805859375,76.36897617578506L167.31516796875,76.18569884697597L167.45087109375,74.96407075723012L167.58657421875,80.23591095209123L167.72227734375002,79.02300421396893L167.99368359375,80.67085319757462L168.12938671875,75.7184325059255L169.21501171875,79.34098774194717L169.35071484374998,79.62758495410284L169.62212109375,81.52756774425507L169.75782421875,72.67322723070781L170.02923046875,74.6503717104594L170.16493359375,76.73461649815242L170.30063671875,77.46897423267365L170.43633984374998,77.0411532521248L170.84344921875,77.16419581572217L170.97915234374997,76.26451337337495L171.25055859375,76.70456651846568L171.38626171875,76.40319927533467L171.52196484375,78.34648990631104L171.65766796875,77.29268922408423L172.06477734375,80.52137110630673L173.15040234375,78.60043479998907L173.28610546875,76.67717748880388L173.42180859375,78.85767950614294L173.69321484374998,76.52145330111186L173.96462109375,79.82878559827806L174.10032421875002,80.16512030363084L174.23602734374998,76.71467109521231L174.50743359375,80.27784729003908L174.64313671875001,76.76817142963411L174.77883984374998,80.95441434780757L174.91454296875,81.35494007666907L175.05024609375,76.4529074629148L175.45735546875,78.63254789511365L175.59305859375,80.75102164347966L175.72876171875,78.90567624568939L176.40727734375,78.36399122079214L176.54298046875002,80.08614752689998L176.67868359374998,78.12341554959616L176.81438671875,75.77365014950436L177.08579296875,79.07036209106445L177.22149609375,77.79347532987596L177.35719921875,80.46152903636296L177.49290234375,80.51086211204529L178.30712109375,76.80690759420395L178.44282421875002,78.53558146953583L178.71423046875,80.76304280757905L178.84993359375,76.3961542050044L178.98563671875002,78.69637552897137L179.52844921875,78.06291117270789L179.66415234375,79.56845794121425L179.79985546875,80.11598650614422L179.93555859375,82.35124313831331L180.07126171875,81.55244235197704L180.20696484375,80.85716072718303L180.34266796875002,77.96312554677327L180.61407421875,80.36182546615602L180.74977734375,80.76584442456563L180.88548046875002,79.62246233224869L181.02118359375,81.56051311890285L181.15688671875,75.37868662675221L181.29258984375,81.13662495215733L181.42829296875001,79.69000591834386L181.97110546875,81.35324035088223L182.24251171875002,81.91667600472769L182.37821484375,79.1815065741539L183.05673046875,78.45068895816804L183.19243359375,78.69216724236807L183.46383984375,77.23807527621587L183.73524609375,81.30248302221298L183.87094921875,80.6056540608406L184.00665234375,81.30857859055202L184.27805859375,79.22734055916469L184.68516796875002,79.63201596339545L184.82087109375,80.90955330928168L185.22798046875002,78.4554130236308L185.49938671875,79.59709539016089L185.90649609375,83.16654884815217L186.31360546874998,80.36953284343083L186.44930859375,82.57346177101135L186.72071484375,80.38462523619334L186.85641796874998,82.93111924330394L186.99212109375,81.19177812337875L187.12782421875,78.91016000509262L187.26352734375,84.95604360103609L187.39923046874998,81.60326415300369L187.53493359375,82.26409409443538L187.80633984375,82.37110648552579L187.94204296874997,83.91030196348828L188.07774609375,82.48880956570308L188.48485546875,80.49963219960532L188.62055859375,83.20796354611714L188.89196484375,81.03469415505728L189.02766796875,82.90473246574402L189.97758984375,81.5270343820254L190.11329296875,87.65219553311667L190.24899609375,81.0457834005356L190.38469921875,81.56472140550613L190.52040234375,76.93159713347752L190.79180859375,84.30513068040213L190.92751171875,80.00044031937917L191.06321484375002,84.65200954675674L191.19891796874998,78.76329197486241L191.47032421875,81.53410289684932L191.60602734375001,83.54751014709474L191.74173046874998,81.78662939866385L192.01313671875,82.89628072579703L192.14883984375,80.886472205321L192.42024609375,83.53633884588878L193.77727734375,82.88756523529689L194.18438671875,85.18077079455058L194.32008984375,84.98795155684154L194.45579296875,84.80121616522472L194.59149609375,83.23937916755676L194.86290234375002,82.10366342465085L194.99860546875,84.48240621884663L195.13430859375,87.37576150894165L195.40571484375002,81.74374355872473L195.81282421875,83.85139181216559L195.94852734375002,87.57008119424184L196.08423046875,82.53457907835644L196.21993359375,84.32161215941112L196.35563671875,81.23071942726772L196.49133984375,83.47279840707779L196.62704296875,83.89111850659053L196.76274609375,84.75802554686864L197.03415234375,84.9761941432953L197.30555859375002,86.35232730706534L197.44126171874998,84.09533762931824L197.71266796875,85.99641058842343L197.98407421875,86.39302108685176L198.25548046875,83.32094256083171L198.39118359375001,86.66653041044871L198.52688671875,89.43962717056276L198.66258984375,88.16895906130473L198.79829296875,81.85210400819778L198.93399609375,82.80384494860967L199.47680859375,84.72746564944586L200.15532421875,88.23140933116277L200.29102734375002,91.63087262709936L200.56243359375,90.570765376091L200.69813671875,86.14679529269537L200.83383984375,89.65754373868307L201.24094921875,85.54301166534424L201.37665234375,85.44734054803848L201.51235546875,85.74649814764659L201.64805859375002,91.18597819407782L201.78376171875,86.93259024620058L202.05516796875,89.99370847145717L202.19087109375002,87.40218931436539L202.59798046875,88.05981908241908L202.86938671875,90.43527964750926L203.14079296875,87.72232387463252L203.27649609374998,92.06665887435278L203.54790234375,87.82158199946086L203.68360546875,85.50133907794952L204.09071484375,88.32588477929433L204.22641796875,87.96958122650784L204.36212109374998,90.27509514490764L204.49782421875,90.57489746809006L204.63352734375,86.49467055002849L204.76923046875,88.7726020216942L204.90493359374997,89.2498029669126L205.17633984375,89.30015587806703L205.31204296875,92.89469494422278L205.44774609375,88.84315822521846L205.58344921875,91.94715056816737L205.71915234374998,90.82288746039073L205.85485546875,93.40649996201198L206.12626171875002,93.7328473130862L206.53337109375,91.96097109715144L206.66907421875,94.29560893774033L206.94048046875,93.66096063454947L207.48329296875,95.87144815921785L207.61899609374998,96.6318116982778L207.89040234375,94.17877916495006L208.02610546875002,97.185846110185L208.43321484375,96.57080326477687L208.70462109374998,94.62815149625143L208.84032421875,93.37587559223175L208.97602734375,94.20545899868011L209.24743359375,95.05851034323375L209.38313671875,94.84662487109503L209.51883984375,94.75184464454651L209.65454296875,97.03379098574321L209.92594921875002,96.52049724260966L210.33305859375,96.32113113005957L210.46876171875002,93.96941983699799L210.74016796875,94.89693089326224L210.87587109375,95.00733687480292L211.01157421875,92.83717974026999L211.28298046875,94.69517344236375L211.41868359375,94.15704611937205L211.82579296875002,95.32080147663753L212.09719921875,97.28209161758424L212.23290234375,96.50091522932054L212.50430859374998,98.16632413864136L212.64001171875,95.83487474918365L212.77571484375,94.63020288944244L212.91141796875002,93.58603203296661L213.04712109375,98.03827617565791L213.18282421875,95.38472874959311L213.31852734375,97.96387507518133L213.72563671875,96.16999620199203L213.86133984375,96.8084483742714L213.99704296875,96.81564583381018L214.13274609375,99.1728958884875L214.26844921875002,95.58987979094188L214.40415234374998,96.40006874005L214.53985546875,97.58064552148184L214.81126171875002,94.94839155673981L214.94696484375,97.4170029560725L215.08266796875,96.85784592231116L215.21837109375,96.19330002864203L215.35407421875001,94.58611551920573L215.48977734375,95.96034381786983L215.89688671875,98.40705806016922L216.30399609375,97.34642330805461L216.57540234375,99.89504490296046L216.84680859374998,97.11036070187888L216.98251171875,97.85671615600586L217.11821484375,95.41799062490463L217.25391796875002,96.21289376417796L217.38962109375,97.94744634628296L217.93243359375,97.54603558778763L218.47524609375,100.0250915090243L218.74665234375,100.0150396823883L218.88235546875,97.83262107769649L219.01805859375,95.9729452331861L219.28946484375,96.83523370822272L219.42516796875,93.95974898338318L219.56087109375,97.1076118350029L219.96798046874997,95.74233347177505L220.37508984375,97.29033235708873L220.51079296875,101.46705681085587L220.64649609375,97.1178746620814L220.91790234375,99.40415237347285L221.05360546875,97.46947173277538L221.18930859375,98.58459734916688L221.46071484375,97.27026973168056L221.59641796875,97.35911850134532L221.86782421874997,96.84956415494284L222.00352734375,98.81179207563402L222.13923046875,97.65755518277487L222.27493359375,98.25107598304749L222.41063671875,97.57629656791687L222.54633984375,96.11443275213242L222.81774609375,98.82400665680568L222.95344921875,96.99591054519018L223.36055859375,101.54507422447205L224.03907421875,96.72260636091232L224.58188671874998,96.70498782396317L225.66751171874998,98.43217297395071L225.80321484375,100.65541430314383L225.93891796875,99.67236910263698L226.07462109375,96.89076199134192L226.21032421875,97.03536176681519L226.61743359375,98.93370930353801L226.75313671875,100.03876550992331L227.02454296874998,98.56861992677054L227.16024609375,96.64175802469255L227.43165234375002,99.99724531173707L227.56735546874998,97.3725521961848L227.70305859375,99.85330784320831L227.83876171875,102.3080518245697L228.11016796875,96.344950735569L228.24587109375,98.58388815323512L228.38157421875,101.82200058301291L228.51727734375,95.72552963097891L228.65298046875,96.51785973707835L228.92438671875,99.71107010046642L229.06008984375,97.99547825256984L229.19579296875,98.55934762954712L229.46719921874998,100.29581093788148L229.73860546875,99.74717462062836L229.87430859375002,98.68454122543335L230.55282421875,98.88779912392299L230.82423046875,99.78292161226274L231.36704296874998,100.77986353635788L231.50274609375,100.9764573375384L231.63844921875,97.03540865580241L232.18126171875,97.13403964042664L232.85977734375,101.01880981524786L232.99548046875,98.9049253265063L233.40258984375,103.55167084932327L233.53829296875,99.78298022349676L233.94540234375,98.62438265482585L234.08110546875,100.42771552006404L234.48821484375,99.38376738627753L234.62391796875,98.91950780153276L234.89532421875,98.5894620815913L235.03102734375003,101.12605079015097L235.16673046875,99.24326453606288L235.30243359375,102.10134758551916L235.57383984375002,97.40483526388805L235.70954296875,100.48090521494548L235.84524609375,100.67516628901164L235.98094921875,99.67204087972642L236.11665234375002,100.38053933779399L236.25235546875,99.0391040245692L236.38805859375,98.32162632544836L236.52376171875,98.07085229953131L236.65946484375,101.26141929626465L237.20227734374998,101.44549959897996L237.60938671875,99.31177520751953L237.74508984374998,98.74904874960582L237.88079296875,98.1790838042895L238.01649609375,101.46315916379294L238.28790234374998,98.96363619963329L238.42360546875,99.44093678394954L238.55930859375,99.24708598852159L238.69501171875,100.8388205766678L238.83071484374997,97.89430940151216L238.96641796875,98.22175864378612L239.10212109375,99.60432732105255L239.23782421875,100.88011219104132L239.37352734375,100.88881009817123L239.78063671875,99.42038182417552L240.05204296875002,101.64055778582892L240.18774609374998,100.56254480282466L240.73055859374998,97.42329780260722L240.86626171875,102.32593411207199L241.00196484375,103.23094431559245L241.27337109375,100.07912520567577L241.81618359375,100.6674237449964L242.22329296875,97.21550925572714L242.49469921875001,102.65864078203838L243.03751171875,102.11083674430849L243.17321484375,101.80384868383408L243.30891796875,99.46755214532217L243.44462109375,101.83540497223537L243.85173046875002,100.42983138561249L244.12313671875,99.88670452435812L244.25883984375,98.20606255531312L244.39454296875002,97.64859352509181L244.53024609374998,101.28409012158713L244.66594921875,99.88053276141486L244.93735546875,102.0585789680481L245.07305859375,102.39954982201259L245.48016796875,100.82270834843318L245.61587109375,99.41616181532542L245.75157421875002,100.19898517926535L245.88727734375,101.81313270330429L246.02298046875,98.88963951667151L246.15868359375,102.36105396350226L246.83719921875002,98.49059079090755L246.97290234375,100.79584681987762L247.10860546875,100.72051966190338L247.78712109375,98.60941334565481L248.05852734375,102.25775166352591L248.19423046875002,100.94420943657558L248.32993359374998,102.61057957013449L248.46563671875,101.22084860006969L248.73704296875002,100.85148060321809L248.87274609375,100.70557965834936L249.00844921875,102.19050699472427L249.14415234375,98.44094121456146L249.27985546875001,100.14988654851913L249.41555859375,98.87808138132095L249.55126171875,102.29830477635066L249.82266796875,102.33223481973013L250.09407421875002,100.30647818247478L250.22977734375,102.06538959344229L250.36548046875,101.69296795129776L250.63688671875002,101.91300038496654L250.77258984374998,99.55787791808447L251.04399609375,97.4843941529592L251.31540234375,101.24489092826845L251.45110546875,101.36664990584056L251.58680859375,101.75618016719818L251.72251171875,98.90102767944336L251.85821484375,99.34184863169989L252.40102734375,101.30996698141098L252.53673046875002,99.88981091976166L252.67243359375,98.85759089390437L252.80813671875,99.52367240190506L252.94383984375,102.30607662598293L253.07954296875002,101.17824409405391L253.21524609375,101.56472071011862L253.48665234375,103.44300562143326L253.62235546875,103.50169891119005L253.75805859375,100.56982431809108L253.89376171874997,100.24829481045406L254.43657421875,100.31222794453303L254.70798046874998,99.90272883574168L254.84368359375,101.61210203170776L254.97938671875,102.1949673096339L255.25079296874998,101.37099299828212L255.52219921875,99.26791055997214L255.65790234375,102.74853869279227L255.79360546874997,103.1115532318751L255.92930859375,98.76942787567775L256.06501171875,102.06948651870093L256.20071484375,99.56039234002432L256.33641796874997,98.6828063329061L256.60782421875,101.39595552285513L256.74352734375,104.8420499165853L256.87923046875,101.58287260929744L257.01493359375,99.66384702920914L257.15063671875,100.77851547797522L257.28633984375,99.85918068885803L257.42204296874996,102.12725375096004L257.55774609375,101.40790635347366L257.69344921875,101.34282443920772L258.10055859375,100.9176878531774L258.23626171875,102.34966580073039L258.50766796875,101.92583624521892L258.64337109375,100.3849586248398L259.05048046875,101.97240873177847L259.18618359375,101.39842305580775L259.32188671874997,100.93811972935995L259.45758984375,103.77657973766328L259.59329296875,100.22858971357346L259.86469921875,99.70406019687654L260.00040234375,99.83223124345145L260.27180859375,102.16976447900137L260.40751171875,103.56781824429831L260.67891796875,101.73624648650488L260.81462109375,102.77844214439394L260.95032421875,99.09369452794394L261.08602734375,104.93734592199327L261.35743359375,102.45364799102148L261.49313671875,100.11828337113063L261.76454296875,100.8782483537992L261.90024609375,102.13831955194475L262.03594921875,99.51632255315782L262.30735546875,98.89232977231345L262.44305859375,101.9032826423645L262.57876171875,97.53647609551749L262.71446484375,99.18424888451895L262.79588671875,98.67921932538351" fill="none"></path></g></g></g></g></g></g><g transform="translate(58, 177)" clip-path="url(#clip_1)"><clipPath id="clip_1"><rect width="271" height="23"></rect></clipPath><g><g><line x1="0" y1="0" x2="0" y2="5" style="visibility: inherit;" fill="rgb(0, 0, 0)" stroke="rgb(204, 204, 204)" stroke-width="1px"></line><line x1="33.92578125" y1="0" x2="33.92578125" y2="5" style="visibility: inherit;" fill="rgb(0, 0, 0)" stroke="rgb(204, 204, 204)" stroke-width="1px"></line><line x1="67.8515625" y1="0" x2="67.8515625" y2="5" style="visibility: inherit;" fill="rgb(0, 0, 0)" stroke="rgb(204, 204, 204)" stroke-width="1px"></line><line x1="101.77734375" y1="0" x2="101.77734375" y2="5" style="visibility: inherit;" fill="rgb(0, 0, 0)" stroke="rgb(204, 204, 204)" stroke-width="1px"></line><line x1="135.703125" y1="0" x2="135.703125" y2="5" style="visibility: inherit;" fill="rgb(0, 0, 0)" stroke="rgb(204, 204, 204)" stroke-width="1px"></line><line x1="169.62890625" y1="0" x2="169.62890625" y2="5" style="visibility: inherit;" fill="rgb(0, 0, 0)" stroke="rgb(204, 204, 204)" stroke-width="1px"></line><line x1="203.5546875" y1="0" x2="203.5546875" y2="5" style="visibility: inherit;" fill="rgb(0, 0, 0)" stroke="rgb(204, 204, 204)" stroke-width="1px"></line><line x1="237.48046875" y1="0" x2="237.48046875" y2="5" style="visibility: inherit;" fill="rgb(0, 0, 0)" stroke="rgb(204, 204, 204)" stroke-width="1px"></line><line x1="271.40625" y1="0" x2="271.40625" y2="5" style="visibility: inherit;" fill="rgb(0, 0, 0)" stroke="rgb(204, 204, 204)" stroke-width="1px"></line></g><g transform="translate(0, 8)"><text x="0" y="0" dx="0em" dy="0.95em" style="text-anchor: middle; visibility: hidden; font-family: &quot;Helvetica Neue&quot;, sans-serif; font-size: 12px; font-weight: 200;" fill="rgb(50, 49, 63)" stroke="none" stroke-width="1px">-5k</text><text x="33.92578125" y="0" dx="0em" dy="0.95em" style="text-anchor: middle; visibility: inherit; font-family: &quot;Helvetica Neue&quot;, sans-serif; font-size: 12px; font-weight: 200;" fill="rgb(50, 49, 63)" stroke="none" stroke-width="1px">0</text><text x="67.8515625" y="0" dx="0em" dy="0.95em" style="text-anchor: middle; visibility: inherit; font-family: &quot;Helvetica Neue&quot;, sans-serif; font-size: 12px; font-weight: 200;" fill="rgb(50, 49, 63)" stroke="none" stroke-width="1px">5k</text><text x="101.77734375" y="0" dx="0em" dy="0.95em" style="text-anchor: middle; visibility: inherit; font-family: &quot;Helvetica Neue&quot;, sans-serif; font-size: 12px; font-weight: 200;" fill="rgb(50, 49, 63)" stroke="none" stroke-width="1px">10k</text><text x="135.703125" y="0" dx="0em" dy="0.95em" style="text-anchor: middle; visibility: inherit; font-family: &quot;Helvetica Neue&quot;, sans-serif; font-size: 12px; font-weight: 200;" fill="rgb(50, 49, 63)" stroke="none" stroke-width="1px">15k</text><text x="169.62890625" y="0" dx="0em" dy="0.95em" style="text-anchor: middle; visibility: inherit; font-family: &quot;Helvetica Neue&quot;, sans-serif; font-size: 12px; font-weight: 200;" fill="rgb(50, 49, 63)" stroke="none" stroke-width="1px">20k</text><text x="203.5546875" y="0" dx="0em" dy="0.95em" style="text-anchor: middle; visibility: inherit; font-family: &quot;Helvetica Neue&quot;, sans-serif; font-size: 12px; font-weight: 200;" fill="rgb(50, 49, 63)" stroke="none" stroke-width="1px">25k</text><text x="237.48046875" y="0" dx="0em" dy="0.95em" style="text-anchor: middle; visibility: inherit; font-family: &quot;Helvetica Neue&quot;, sans-serif; font-size: 12px; font-weight: 200;" fill="rgb(50, 49, 63)" stroke="none" stroke-width="1px">30k</text><text x="271.40625" y="0" dx="0em" dy="0.95em" style="text-anchor: middle; visibility: hidden; font-family: &quot;Helvetica Neue&quot;, sans-serif; font-size: 12px; font-weight: 200;" fill="rgb(50, 49, 63)" stroke="none" stroke-width="1px">35k</text></g><line x1="0" y1="0" x2="271.40625" y2="0" fill="rgb(0, 0, 0)" stroke="rgb(204, 204, 204)" stroke-width="1px"></line></g></g></g></g></svg>